<?xml version="1.0" standalone="no"?><!DOCTYPE svg PUBLIC "-//W3C//DTD SVG 1.1//EN" "http://www.w3.org/Graphics/SVG/1.1/DTD/svg11.dtd"><svg t="1716014736680" class="icon" viewBox="0 0 1024 1024" version="1.1" xmlns="http://www.w3.org/2000/svg" p-id="2540" xmlns:xlink="http://www.w3.org/1999/xlink" width="32" height="32"><path d="M923.511331 337.63374c-22.528086-53.261041-54.774511-101.092419-95.845928-142.162814-41.070394-41.070394-88.900749-73.317843-142.162814-95.845928C630.352525 76.298733 571.777455 64.47136 511.404436 64.47136c-93.058442 0-182.26823 28.307719-257.985726 81.861426-36.459377 25.787316-68.797899 56.787354-96.117105 92.139513-27.591405 35.703153-49.529043 75.163887-65.204048 117.285217-18.548448 49.843198-27.953655 102.32141-27.953655 155.976424 0 60.373019 11.827373 118.948089 35.154661 174.099177 22.528086 53.262064 54.774511 101.091396 95.845928 142.162814s88.900749 73.317843 142.16179 95.845928c55.151088 23.326265 113.726158 35.154661 174.099177 35.154661s118.948089-11.828396 174.099177-35.154661c53.262064-22.528086 101.092419-54.774511 142.162814-95.845928 41.071418-41.071418 73.317843-88.900749 95.845928-142.162814 23.326265-55.151088 35.154661-113.726158 35.154661-174.099177S946.837596 392.783805 923.511331 337.63374zM883.826494 325.222059 677.329443 518.662747c0.053212-1.726318 0.088004-3.455705 0.088004-5.194302 0-4.484128-0.182149-8.9263-0.529049-13.323447l0.98749-370.255719C767.162424 168.96525 840.207044 238.47537 883.826494 325.222059zM509.711887 650.472771c-75.544557 0-137.00535-61.460794-137.00535-137.00535s61.460794-137.00535 137.00535-137.00535c75.54558 0 137.006374 61.460794 137.006374 137.00535S585.258491 650.472771 509.711887 650.472771zM647.208425 117.904317l-0.796132 298.513768c-14.415314-20.246113-33.217543-37.158295-54.998615-49.360198L352.645642 126.899178C402.140916 106.368586 455.9351 95.170546 511.404436 95.170546 558.931892 95.170546 604.623537 103.177917 647.208425 117.904317zM322.964646 140.586922l204.976418 206.169593c-5.989411-0.650823-12.068873-0.994654-18.229177-0.994654-2.211365 0-4.409426 0.056282-6.599302 0.141216l0-0.106424-373.880269-0.035816C168.411641 255.731382 237.979066 183.875844 322.964646 140.586922zM94.843088 511.731894c0-46.412053 7.561209-91.862197 22.463618-135.27187l295.758004 0.028653c-11.994172 8.487302-22.825868 18.509563-32.214702 29.776164L119.022791 651.652644C103.375415 607.901187 94.843088 560.795333 94.843088 511.731894zM131.333164 682.1881l213.659171-200.243627c-1.950422 10.213619-2.983961 20.74958-2.983961 31.522947 0 12.028964 1.284249 23.762193 3.702322 35.07996l-0.272199-0.001023-0.968048 344.82656C249.953795 851.869664 173.683714 776.24836 131.333164 682.1881zM375.135866 905.399835l0.816598-290.89423c15.113209 19.958564 34.580586 36.44505 56.978712 48.028876l235.525178 235.025805c-48.490388 19.810185-101.519138 30.733978-157.051919 30.733978C463.703017 928.295288 417.85276 920.228565 375.135866 905.399835zM698.292893 883.963617 494.359224 680.462806c5.058203 0.461511 10.17678 0.710175 15.352663 0.710175 24.570605 0 47.923476-5.311982 68.971861-14.846126l319.142597 0.978281C859.805404 761.408373 788.364305 838.556451 698.292893 883.963617zM908.835074 636.638695l-284.499589-0.87288c19.273972-18.074657 34.285874-40.637536 43.352367-66.00632l229.559303-215.044728c19.800975 48.481178 30.719652 101.497649 30.719652 157.016103C927.966807 555.230594 921.260058 597.190241 908.835074 636.638695z" p-id="2541"></path></svg>